<svg class="svgicon css31" preserveAspectRatio="xMidYMid meet" xmlns="http://www.w3.org/2000/svg" viewBox="0 0 60 60" style="border-radius: 50%;"><rect x="0" y="0" width="60" height="60" style="fill: rgb(63, 178, 233)" rx="30" ry="30"></rect><g transform="scale(0.6) translate(20, 20)"><path fill="rgb(255, 255, 255)" d="M34.247,45.111c5.118,0,9.281-4.163,9.281-9.281s-4.163-9.282-9.281-9.282s-9.281,4.164-9.281,9.282 S29.129,45.111,34.247,45.111z M34.247,28.416c4.088,0,7.414,3.326,7.414,7.414s-3.326,7.413-7.414,7.413s-7.413-3.325-7.413-7.413 S30.159,28.416,34.247,28.416z"></path><path fill="rgb(255, 255, 255)" d="M58.132,21.231h-47.77c-1.032,0-1.868,0.836-1.868,1.868v24.978c0,1.032,0.836,1.868,1.868,1.868h47.77 c1.032,0,1.868-0.836,1.868-1.868V23.1C60,22.067,59.164,21.231,58.132,21.231z M56.265,46.21H12.23V24.967h44.034V46.21z"></path><path fill="rgb(255, 255, 255)" d="M26.852,15.596c-2.896,0-5.519,1.482-7.014,3.967c-0.266,0.442-0.124,1.017,0.318,1.282 c0.441,0.265,1.016,0.123,1.281-0.319c1.154-1.917,3.178-3.062,5.414-3.062c2.234,0,4.259,1.145,5.412,3.062 c0.176,0.292,0.484,0.453,0.801,0.453c0.164,0,0.33-0.043,0.481-0.134c0.441-0.266,0.584-0.84,0.318-1.282 C32.369,17.078,29.748,15.596,26.852,15.596z"></path><path fill="rgb(255, 255, 255)" d="M6.354,35.033H3.735V13.79h45.133v5.448c0,1.031,0.836,1.867,1.868,1.867c1.031,0,1.867-0.836,1.867-1.867 v-7.316c0-1.031-0.836-1.867-1.867-1.867H1.867C0.836,10.055,0,10.891,0,11.922V36.9c0,1.032,0.836,1.868,1.867,1.868h4.486 c1.031,0,1.867-0.836,1.867-1.868C8.221,35.869,7.385,35.033,6.354,35.033z"></path><path fill="rgb(255, 255, 255)" d="M33.75,40.303v0.679c0,0.314,0.255,0.569,0.559,0.569c0.314,0,0.569-0.255,0.569-0.569v-0.679 c1.624-0.158,2.473-1.031,2.473-2.364c0-3.031-4.425-2.291-4.425-3.879c0-0.485,0.376-0.958,1.383-0.958 c0.69,0,1.321,0.278,1.697,0.643c0.181,0.17,0.352,0.267,0.521,0.267c0.364,0,0.655-0.291,0.655-0.643 c0-0.146-0.049-0.278-0.122-0.388c-0.412-0.582-1.212-0.971-2.182-1.091v-0.703c0-0.315-0.255-0.57-0.569-0.57 c-0.304,0-0.559,0.255-0.559,0.57v0.69c-1.552,0.17-2.23,1.104-2.23,2.183c0,2.921,4.425,2.109,4.425,3.879 c0,0.752-0.533,1.115-1.636,1.115c-0.837,0-1.479-0.412-1.988-0.922c-0.122-0.121-0.268-0.266-0.534-0.266 c-0.352,0-0.642,0.29-0.642,0.654c0,0.121,0.036,0.242,0.097,0.34C31.653,39.527,32.574,40.157,33.75,40.303z"></path></g></svg>