<svg class="svgicon css31" preserveAspectRatio="xMidYMid meet" xmlns="http://www.w3.org/2000/svg" viewBox="0 0 60 60" style="border-radius: 50%;"><rect x="0" y="0" width="60" height="60" style="fill: rgb(63, 178, 233)" rx="30" ry="30"></rect><g transform="scale(0.6) translate(20, 20)"><path fill="rgb(255, 255, 255)" d="M45.972,6.806c-5.508,0-10.284,3.379-12.578,8.281c-2.294-4.902-7.07-8.281-12.578-8.281 c-7.735,0-14.028,6.664-14.028,14.855c0,4.109,1.51,7.95,4.143,10.538c0.57,0.562,1.489,0.554,2.05-0.018 c0.562-0.57,0.554-1.488-0.018-2.05c-2.082-2.046-3.275-5.134-3.275-8.471c0-6.593,4.992-11.957,11.128-11.957 s11.128,5.364,11.128,11.957c0,0.801,0.649,1.449,1.45,1.449s1.449-0.648,1.449-1.449c0-6.593,4.992-11.957,11.129-11.957 s11.129,5.364,11.129,11.957c0,3.353-1.215,6.462-3.334,8.53c-4.377,4.272-16.762,16.103-20.374,19.551 c-2.452-2.336-8.941-8.523-14.204-13.583c-0.578-0.554-1.495-0.535-2.05,0.041c-0.555,0.577-0.537,1.495,0.041,2.05 c6.601,6.345,15.129,14.464,15.214,14.545c0.28,0.267,0.64,0.399,1,0.399s0.721-0.133,1-0.4 c0.163-0.154,16.265-15.517,21.398-20.528C58.466,29.656,60,25.791,60,21.661C60,13.47,53.707,6.806,45.972,6.806z"></path><path fill="rgb(255, 255, 255)" d="M20.584,34.516l2.474-7.778l3.637,13.244c0.116,0.42,0.498,0.71,0.932,0.71c0.002,0,0.005,0,0.008,0 c0.438-0.003,0.818-0.301,0.928-0.726l1.972-7.673l0.691,1.786c0.145,0.373,0.503,0.618,0.901,0.618h6.579 c0.534,0,0.967-0.433,0.967-0.967c0-0.533-0.433-0.966-0.967-0.966H32.79l-1.492-3.856c-0.145-0.372-0.503-0.617-0.901-0.617 c-0.007,0-0.015,0-0.022,0c-0.407,0.01-0.766,0.274-0.895,0.661l-0.346,1.038c-0.007,0.021-0.014,0.043-0.02,0.065l-1.518,5.908 l-3.539-12.885c-0.114-0.413-0.485-0.701-0.913-0.711c-0.421-0.009-0.811,0.266-0.94,0.674l-3.249,10.214H0.966 C0.433,33.256,0,33.688,0,34.223c0,0.533,0.433,0.966,0.966,0.966h18.697C20.084,35.188,20.457,34.917,20.584,34.516z"></path></g></svg>