<svg class="svgicon css102" preserveAspectRatio="xMidYMid meet" xmlns="http://www.w3.org/2000/svg" viewBox="0 0 60 60" style="border-radius: 50%;"><rect x="0" y="0" width="60" height="60" style="fill: none" rx="30" ry="30"></rect><g transform="scale(0.75) translate(10, 10)"><path fill="rgb(101, 193, 237)" d="M55.041,10.83H4.958C2.225,10.83,0,13.055,0,15.789v28.423c0,2.733,2.225,4.958,4.958,4.958h50.083 c2.734,0,4.959-2.225,4.959-4.958V15.789C60,13.055,57.775,10.83,55.041,10.83z M56.707,44.212c0,0.918-0.748,1.665-1.666,1.665 H4.958c-0.918,0-1.665-0.747-1.665-1.665V15.789c0-0.918,0.747-1.666,1.665-1.666h50.083c0.918,0,1.666,0.748,1.666,1.666V44.212z"></path><path fill="rgb(101, 193, 237)" d="M50.99,18.698L29.997,29.541L8.688,18.696c-0.406-0.207-0.901-0.045-1.107,0.36 c-0.207,0.405-0.045,0.901,0.359,1.107L29.627,31.2c0.033,0.018,0.069,0.026,0.104,0.038c0.021,0.008,0.041,0.018,0.062,0.023 c0.067,0.018,0.137,0.028,0.206,0.028l0,0l0,0c0.069,0,0.14-0.011,0.208-0.028c0.021-0.006,0.041-0.017,0.062-0.024 c0.036-0.012,0.072-0.021,0.107-0.039l21.368-11.036c0.403-0.209,0.562-0.705,0.354-1.109 C51.891,18.648,51.394,18.491,50.99,18.698z"></path><path fill="rgb(101, 193, 237)" d="M22.119,29.709l-9.369,9.369c-0.321,0.322-0.321,0.843,0,1.164c0.161,0.161,0.372,0.242,0.582,0.242 c0.211,0,0.422-0.081,0.582-0.242l9.369-9.368c0.322-0.322,0.322-0.843,0-1.165C22.962,29.388,22.44,29.388,22.119,29.709z"></path><path fill="rgb(101, 193, 237)" d="M37.896,29.884c-0.322-0.321-0.843-0.321-1.164,0c-0.322,0.322-0.322,0.843,0,1.165l9.135,9.136 c0.161,0.161,0.371,0.241,0.582,0.241s0.422-0.08,0.582-0.241c0.322-0.321,0.322-0.843,0-1.164L37.896,29.884z"></path></g></svg>