<svg class="svgicon css31" preserveAspectRatio="xMidYMid meet" xmlns="http://www.w3.org/2000/svg" viewBox="0 0 60 60" style="border-radius: 50%;"><rect x="0" y="0" width="60" height="60" style="fill: rgb(63, 178, 233)" rx="30" ry="30"></rect><g transform="scale(0.6) translate(20, 20)"><path fill="rgb(255, 255, 255)" d="M10.738,43.354c2.417,0,4.431-1.754,5.386-4.691c0.038-0.117,0.095-0.203,0.208-0.367 c0.374-0.541,0.709-1.139,0.709-2.494c0-5.191-3.268-7.555-6.304-7.555c-3.07,0-6.374,2.363-6.374,7.555 c0,1.359,0.368,1.977,0.777,2.541c0.125,0.17,0.191,0.264,0.231,0.383C6.339,41.623,8.345,43.354,10.738,43.354z M6.316,35.801 c0-4.137,2.382-5.604,4.422-5.604c2.167,0,4.352,1.732,4.352,5.604c0,0.859-0.152,1.08-0.363,1.385 c-0.148,0.213-0.331,0.479-0.459,0.873c-0.681,2.094-2,3.344-3.53,3.344c-1.512,0-2.826-1.232-3.514-3.293 c-0.137-0.412-0.341-0.691-0.505-0.918C6.485,36.869,6.316,36.639,6.316,35.801z"></path><path fill="rgb(255, 255, 255)" d="M37.392,43.354c2.418,0,4.432-1.754,5.388-4.691c0.038-0.119,0.095-0.203,0.208-0.369 c0.373-0.539,0.708-1.137,0.708-2.492c0-5.191-3.268-7.555-6.304-7.555c-3.069,0-6.373,2.363-6.373,7.555 c0,1.359,0.367,1.977,0.777,2.539c0.124,0.172,0.191,0.266,0.23,0.385C32.992,41.623,34.998,43.354,37.392,43.354z M37.392,30.197 c2.166,0,4.353,1.732,4.353,5.604c0,0.859-0.152,1.08-0.362,1.385c-0.148,0.213-0.332,0.479-0.459,0.873 c-0.682,2.094-2.001,3.344-3.531,3.344c-1.513,0-2.826-1.23-3.514-3.293c-0.137-0.412-0.341-0.693-0.504-0.918 c-0.235-0.322-0.404-0.555-0.404-1.391C32.97,31.664,35.352,30.197,37.392,30.197z"></path><path fill="rgb(255, 255, 255)" d="M55.306,40.732c0.234-0.34,0.45-0.709,0.555-1.322c0.14,0.662,0.727,1.16,1.431,1.16h1.245 c0.809,0,1.464-0.656,1.464-1.465V6.645c0-0.809-0.655-1.463-1.464-1.463H1.765c-0.809,0-1.464,0.654-1.464,1.463v32.461 c0,0.809,0.655,1.465,1.464,1.465h1.389c0.809,0,1.464-0.656,1.464-1.465c0-0.783-0.615-1.424-1.389-1.461V8.109h53.844v29.549 c-0.525,0.078-0.959,0.438-1.146,0.918c0-0.008,0.001-0.014,0.001-0.023c0-4.455-2.819-6.486-5.439-6.486 c-2.647,0-5.497,2.031-5.497,6.486c0,1.188,0.322,1.729,0.682,2.223c0.097,0.133,0.145,0.201,0.171,0.277 c0.321,0.965,0.778,1.775,1.337,2.412c-0.395-0.105-0.828-0.045-1.188,0.197c-0.314,0.211-0.613,0.449-0.904,0.701 c-0.729-0.916-1.569-1.713-2.513-2.346c-0.594-0.398-1.389-0.309-1.879,0.213c-0.698,0.738-1.836,1.619-3.341,1.619 c-1.459,0-2.597-0.881-3.293-1.619c-0.491-0.521-1.286-0.611-1.879-0.213c-1.026,0.688-1.935,1.566-2.705,2.586 c-0.37-0.346-0.758-0.666-1.171-0.943c-0.352-0.234-0.772-0.297-1.159-0.203c0.566-0.646,1.027-1.475,1.348-2.459 c0.024-0.078,0.065-0.137,0.154-0.266c0.327-0.475,0.621-0.998,0.621-2.18c0-4.455-2.819-6.486-5.439-6.486 c-2.647,0-5.497,2.031-5.497,6.486c0,1.188,0.323,1.729,0.682,2.223c0.097,0.133,0.145,0.201,0.171,0.277 c0.321,0.965,0.779,1.775,1.337,2.412c-0.395-0.105-0.827-0.045-1.187,0.195c-0.314,0.211-0.617,0.443-0.909,0.697 c-0.728-0.914-1.567-1.709-2.509-2.34c-0.595-0.398-1.389-0.309-1.879,0.213c-0.697,0.738-1.835,1.619-3.34,1.619 c-1.459,0-2.597-0.881-3.294-1.619c-0.49-0.521-1.285-0.611-1.879-0.213C2.138,44.289,0.019,48.631,0,53.35 c-0.001,0.389,0.152,0.762,0.427,1.039c0.274,0.275,0.647,0.43,1.037,0.43h9.239c0.015,0,0.03,0,0.045,0h9.238h0.001h3.818 c0.006,0,0.012-0.002,0.019-0.002s0.012,0.002,0.019,0.002h4.276h0.001h9.237c0.016,0,0.031,0,0.046,0h9.238h0.001h3.817 c0.007,0,0.013-0.002,0.02-0.002s0.013,0.002,0.019,0.002h7.738c0.39,0,0.763-0.154,1.037-0.43s0.429-0.65,0.427-1.039 c-0.015-4.029-1.83-7.742-4.736-9.689c-0.352-0.234-0.772-0.295-1.159-0.201c0.565-0.648,1.027-1.475,1.347-2.461 C55.176,40.922,55.216,40.861,55.306,40.732z M23.833,34.02c1.736,0,3.488,1.4,3.488,4.533c0,0.67-0.11,0.83-0.276,1.07 c-0.122,0.178-0.291,0.42-0.404,0.773c-0.548,1.684-1.597,2.689-2.807,2.689c-1.195,0-2.239-0.99-2.792-2.65 c-0.123-0.367-0.302-0.613-0.445-0.811c-0.185-0.254-0.308-0.422-0.308-1.072C20.288,35.207,22.198,34.02,23.833,34.02z M25.212,44.803c-0.41,0.209-0.879,0.354-1.407,0.354c-0.537,0-1.017-0.158-1.435-0.383c0.461,0.174,0.952,0.264,1.463,0.264 C24.314,45.037,24.775,44.955,25.212,44.803z M20.103,46.793c1.127,0.848,2.394,1.291,3.739,1.291c1.316,0,2.577-0.443,3.703-1.291 c0.14,0.135,0.272,0.279,0.403,0.428c-0.638,1.436-1.055,3.018-1.215,4.67h-2.891c-0.006,0-0.012,0.002-0.019,0.002 s-0.012-0.002-0.019-0.002h-2.433c-0.172-1.781-0.641-3.479-1.365-5C20.04,46.859,20.07,46.824,20.103,46.793z M10.749,51.891 c-0.016,0-0.03,0-0.045,0H3.017c0.32-2.723,1.491-5.156,3.249-6.742c1.345,1.07,2.866,1.629,4.483,1.629 c1.581,0,3.095-0.559,4.438-1.629c1.757,1.586,2.929,4.02,3.249,6.742H10.749z M37.402,51.891c-0.015,0-0.03,0-0.046,0h-7.686 c0.32-2.723,1.491-5.156,3.248-6.742c1.345,1.07,2.866,1.629,4.483,1.629c1.581,0,3.095-0.559,4.438-1.629 c1.757,1.586,2.928,4.02,3.248,6.742H37.402z M56.665,51.891h-6.168c-0.006,0-0.012,0.002-0.019,0.002s-0.013-0.002-0.02-0.002 h-2.433c-0.172-1.781-0.641-3.479-1.364-5c0.032-0.031,0.063-0.066,0.096-0.098c1.128,0.848,2.395,1.291,3.739,1.291 c1.316,0,2.577-0.443,3.703-1.291C55.494,48.031,56.372,49.85,56.665,51.891z M49.027,44.773c0.46,0.174,0.95,0.264,1.461,0.264 c0.48,0,0.941-0.082,1.378-0.234c-0.409,0.209-0.878,0.354-1.407,0.354C49.924,45.156,49.444,44.998,49.027,44.773z M53.699,39.623 c-0.122,0.178-0.29,0.42-0.405,0.773c-0.547,1.684-1.596,2.689-2.806,2.689c-1.196,0-2.24-0.99-2.793-2.65 c-0.122-0.367-0.301-0.611-0.444-0.809c-0.186-0.256-0.309-0.424-0.309-1.074c0-3.346,1.91-4.533,3.546-4.533 c1.736,0,3.487,1.4,3.487,4.533C53.976,39.223,53.866,39.383,53.699,39.623z"></path></g></svg>