<svg class="svgicon css31" preserveAspectRatio="xMidYMid meet" xmlns="http://www.w3.org/2000/svg" viewBox="0 0 60 60" style="border-radius: 50%;"><rect x="0" y="0" width="60" height="60" style="fill: rgb(63, 178, 233)" rx="30" ry="30"></rect><g transform="scale(0.6) translate(20, 20)"><path fill="rgb(255, 255, 255)" d="M58.549,15.271H45.15c-0.731-7.425-7.01-13.245-14.624-13.245s-13.894,5.82-14.625,13.245H1.451 C0.649,15.271,0,15.92,0,16.722v39.801c0,0.802,0.649,1.451,1.451,1.451h57.098c0.802,0,1.451-0.649,1.451-1.451V16.722 C60,15.92,59.351,15.271,58.549,15.271z M30.526,4.928c6.011,0,10.983,4.522,11.701,10.342H18.824 C19.542,9.45,24.515,4.928,30.526,4.928z M57.098,18.174v13.647H35.856v-3.913c0-0.4-0.325-0.726-0.726-0.726h-9.209 c-0.401,0-0.727,0.325-0.727,0.726v3.913H2.902V18.174H57.098z M26.646,28.634h7.759v9.932h-7.759V28.634z M2.902,55.072v-21.8 h22.293v6.019c0,0.401,0.325,0.727,0.727,0.727h9.209c0.4,0,0.726-0.325,0.726-0.727v-6.019h21.241v21.8H2.902z"></path></g></svg>