<svg class="svgicon css102" preserveAspectRatio="xMidYMid meet" xmlns="http://www.w3.org/2000/svg" viewBox="0 0 60 60" style="border-radius: 50%;"><rect x="0" y="0" width="60" height="60" style="fill: none" rx="30" ry="30"></rect><g transform="scale(0.75) translate(10, 10)"><path fill="rgb(101, 193, 237)" d="M51.22,8.785C45.555,3.12,38.021,0,30.009,0C21.995,0,14.462,3.121,8.796,8.788 C3.129,14.453,0.008,21.986,0.007,30c0,8.014,3.12,15.546,8.786,21.212C14.459,56.879,21.993,60,30.007,60 c8.013,0,15.547-3.12,21.213-8.786C62.917,39.517,62.917,20.483,51.22,8.785z M48.699,48.693 c-4.993,4.992-11.631,7.742-18.692,7.742s-13.7-2.75-18.693-7.743S3.571,37.062,3.571,30s2.751-13.699,7.745-18.692 c4.992-4.993,11.631-7.743,18.692-7.743c7.061,0,13.698,2.749,18.69,7.741C59.007,21.614,59.007,38.386,48.699,48.693z"></path><path fill="rgb(101, 193, 237)" d="M44.915,29.109c-0.004,0-0.007,0-0.011,0l-9.942,0.12c-0.442-2.231-2.415-3.92-4.774-3.92 c-0.925,0-1.786,0.264-2.523,0.713l-11.248-12.57c-0.329-0.367-0.892-0.399-1.258-0.07c-0.367,0.328-0.398,0.892-0.07,1.258 l11.248,12.571c-0.636,0.822-1.018,1.85-1.018,2.967c0,2.686,2.184,4.87,4.869,4.87c2.399,0,4.395-1.747,4.792-4.036l9.946-0.12 c0.492-0.006,0.886-0.409,0.88-0.902C45.8,29.502,45.402,29.109,44.915,29.109z M30.188,33.266c-1.702,0-3.087-1.385-3.087-3.088 c0-1.701,1.385-3.086,3.087-3.086s3.087,1.385,3.087,3.086C33.274,31.881,31.89,33.266,30.188,33.266z"></path></g></svg>