<svg class="svgicon css102" preserveAspectRatio="xMidYMid meet" xmlns="http://www.w3.org/2000/svg" viewBox="0 0 60 60" style="border-radius: 50%;"><rect x="0" y="0" width="60" height="60" style="fill: none" rx="30" ry="30"></rect><g transform="scale(0.75) translate(10, 10)"><path fill="rgb(101, 193, 237)" d="M30,0C18.637,0,9.036,9.839,9.036,21.484c0,11.039,18.692,36.681,19.488,37.768 C28.869,59.722,29.417,60,30,60s1.131-0.278,1.476-0.748c0.795-1.087,19.488-26.729,19.488-37.768C50.964,9.839,41.363,0,30,0z M30,55.034c-5.925-8.393-17.306-26.061-17.306-33.55c0-9.662,7.925-17.826,17.306-17.826c9.38,0,17.305,8.164,17.305,17.826 C47.305,28.974,35.925,46.642,30,55.034z"></path><path fill="rgb(101, 193, 237)" d="M39.083,17.629h-6.274l-1.939-5.968c-0.123-0.377-0.474-0.632-0.87-0.632c-0.396,0-0.747,0.256-0.869,0.632 l-1.939,5.968h-6.275c-0.396,0-0.747,0.255-0.869,0.632c-0.123,0.377,0.012,0.79,0.332,1.023l5.076,3.688l-1.939,5.968 c-0.122,0.377,0.012,0.789,0.332,1.022c0.321,0.232,0.755,0.232,1.076,0l5.076-3.688l5.077,3.688 c0.16,0.116,0.349,0.175,0.538,0.175c0.188,0,0.377-0.059,0.537-0.175c0.32-0.233,0.455-0.646,0.333-1.022l-1.939-5.968 l5.076-3.688c0.32-0.233,0.454-0.646,0.332-1.023C39.83,17.884,39.479,17.629,39.083,17.629z M32.932,21.883 c-0.32,0.233-0.455,0.646-0.333,1.022l1.275,3.923l-3.337-2.425c-0.16-0.115-0.35-0.174-0.538-0.174s-0.377,0.059-0.537,0.174 l-3.337,2.425l1.274-3.923c0.122-0.377-0.012-0.789-0.332-1.022l-3.337-2.425h4.125c0.396,0,0.747-0.255,0.87-0.632l1.273-3.923 l1.275,3.923c0.122,0.377,0.474,0.632,0.87,0.632h4.124L32.932,21.883z"></path></g></svg>